<?xml version="1.0" encoding="UTF-8"?>
<svg id="Layer_1" data-name="Layer 1" xmlns="http://www.w3.org/2000/svg" viewBox="0 0 64.59 64.08">
  <defs>
    <style>
      .cls-1 {
        fill: #1e5087;
        stroke-width: 0px;
      }
    </style>
  </defs>
  <g>
    <path class="cls-1" d="m37.91,45.83c-8.38,1.45-14.83-.51-14.83-.51-8.62-2.69-13.93-9.11-16.38-12-.03-.04-.03-.1,0-.13,1.93-1.86,6.33-5.91,12.91-8.41h0s.01,0,.02,0c.08-.01.14.07.11.14-2.34,4.62-1.36,9.19-1.36,9.19.5,2.02,1.32,3.69,2.35,5.08h0c4.63,6.24,13.51,6.59,17.16,6.45.12,0,.14.18.02.2Z"/>
    <path class="cls-1" d="m26.9,20.85c8.38-1.45,14.83.51,14.83.51,8.62,2.69,13.93,9.11,16.38,12,.03.04.03.1,0,.13-1.93,1.86-6.33,5.91-12.91,8.41h0s-.01,0-.02,0c-.08.01-.14-.07-.11-.14,2.34-4.62,1.36-9.19,1.36-9.19-.5-2.02-1.32-3.69-2.35-5.08h0c-4.63-6.24-13.51-6.59-17.16-6.45-.12,0-.14-.18-.02-.2Z"/>
  </g>
  <path class="cls-1" d="m36.46,24.95s-.03.07-.06.09l.06-.09Z"/>
  <path class="cls-1" d="m25.1,28.72c-.06.09-.11.18-.16.28l1.1.64c.05-.1.11-.19.16-.28l-1.1-.64Zm0,0c-.06.09-.11.18-.16.28l1.1.64c.05-.1.11-.19.16-.28l-1.1-.64Zm2.99-2.97c-.09.06-.18.11-.28.17l.67,1.09c.09-.06.18-.12.28-.17l-.67-1.09Zm-2.99,2.97c-.06.09-.11.18-.16.28l1.1.64c.05-.1.11-.19.16-.28l-1.1-.64Zm2.99-2.97c-.09.06-.18.11-.28.17l.67,1.09c.09-.06.18-.12.28-.17l-.67-1.09Zm-2.99,2.97c-.06.09-.11.18-.16.28l1.1.64c.05-.1.11-.19.16-.28l-1.1-.64Zm2.99-2.97c-.09.06-.18.11-.28.17l.67,1.09c.09-.06.18-.12.28-.17l-.67-1.09Zm-2.99,2.97c-.06.09-.11.18-.16.28l1.1.64c.05-.1.11-.19.16-.28l-1.1-.64Zm2.99-2.97c-.09.06-.18.11-.28.17l.67,1.09c.09-.06.18-.12.28-.17l-.67-1.09Zm-2.99,2.97c-.06.09-.11.18-.16.28l1.1.64c.05-.1.11-.19.16-.28l-1.1-.64Zm2.99-2.97c-.09.06-.18.11-.28.17l.67,1.09c.09-.06.18-.12.28-.17l-.67-1.09Zm-2.99,2.97c-.06.09-.11.18-.16.28l1.1.64c.05-.1.11-.19.16-.28l-1.1-.64Zm2.99-2.97c-.09.06-.18.11-.28.17l.67,1.09c.09-.06.18-.12.28-.17l-.67-1.09Zm-2.99,2.97c-.06.09-.11.18-.16.28l1.1.64c.05-.1.11-.19.16-.28l-1.1-.64Zm2.99-2.97c-.09.06-.18.11-.28.17l.67,1.09c.09-.06.18-.12.28-.17l-.67-1.09Zm-2.99,2.97c-.06.09-.11.18-.16.28l1.1.64c.05-.1.11-.19.16-.28l-1.1-.64Zm2.99-2.97c-.09.06-.18.11-.28.17l.67,1.09c.09-.06.18-.12.28-.17l-.67-1.09Zm-2.99,2.97c-.06.09-.11.18-.16.28l1.1.64c.05-.1.11-.19.16-.28l-1.1-.64Zm2.99-2.97c-.09.06-.18.11-.28.17l.67,1.09c.09-.06.18-.12.28-.17l-.67-1.09Zm-2.99,2.97c-.06.09-.11.18-.16.28l1.1.64c.05-.1.11-.19.16-.28l-1.1-.64Zm2.99-2.97c-.09.06-.18.11-.28.17l.67,1.09c.09-.06.18-.12.28-.17l-.67-1.09Zm-2.99,2.97c-.06.09-.11.18-.16.28l1.1.64c.05-.1.11-.19.16-.28l-1.1-.64Zm2.99-2.97c-.09.06-.18.11-.28.17l.67,1.09c.09-.06.18-.12.28-.17l-.67-1.09Zm-2.99,2.97c-.06.09-.11.18-.16.28l1.1.64c.05-.1.11-.19.16-.28l-1.1-.64Zm2.99-2.97c-.09.06-.18.11-.28.17l.67,1.09c.09-.06.18-.12.28-.17l-.67-1.09Zm-2.99,2.97c-.06.09-.11.18-.16.28l1.1.64c.05-.1.11-.19.16-.28l-1.1-.64Zm2.99-2.97c-.09.06-.18.11-.28.17l.67,1.09c.09-.06.18-.12.28-.17l-.67-1.09Zm-2.99,2.97c-.06.09-.11.18-.16.28l1.1.64c.05-.1.11-.19.16-.28l-1.1-.64Zm2.99-2.97c-.09.06-.18.11-.28.17l.67,1.09c.09-.06.18-.12.28-.17l-.67-1.09Zm-2.99,2.97c-.06.09-.11.18-.16.28l1.1.64c.05-.1.11-.19.16-.28l-1.1-.64Zm2.99-2.97c-.09.06-.18.11-.28.17l.67,1.09c.09-.06.18-.12.28-.17l-.67-1.09Zm-2.99,2.97c-.06.09-.11.18-.16.28l1.1.64c.05-.1.11-.19.16-.28l-1.1-.64Zm2.99-2.97c-.09.06-.18.11-.28.17l.67,1.09c.09-.06.18-.12.28-.17l-.67-1.09Zm-2.99,2.97c-.06.09-.11.18-.16.28l1.1.64c.05-.1.11-.19.16-.28l-1.1-.64Zm2.99-2.97c-.09.06-.18.11-.28.17l.67,1.09c.09-.06.18-.12.28-.17l-.67-1.09Zm-2.99,2.97c-.06.09-.11.18-.16.28l1.1.64c.05-.1.11-.19.16-.28l-1.1-.64Zm2.99-2.97c-.09.06-.18.11-.28.17l.67,1.09c.09-.06.18-.12.28-.17l-.67-1.09Zm10.39,1.02c-.08-.07-.16-.14-.24-.21-.35-.3-.73-.57-1.13-.81-.09-.06-.18-.11-.28-.16-.36-.2-.74-.38-1.13-.52l-.43,1.2c.32.12.63.27.93.43.09.05.19.1.28.16.33.2.64.42.93.67.08.07.16.14.24.21.15.13.29.28.43.42l.96-.84c-.18-.19-.36-.37-.55-.54Zm-10.67-.84l.67,1.09c.09-.06.18-.12.28-.17l-.67-1.09c-.09.06-.18.11-.28.17Zm-2.87,3.08l1.1.64c.05-.1.11-.19.16-.28l-1.1-.64c-.06.09-.11.18-.16.28Zm3.15-3.25c-.09.06-.18.11-.28.17l.67,1.09c.09-.06.18-.12.28-.17l-.67-1.09Zm-2.99,2.97c-.06.09-.11.18-.16.28l1.1.64c.05-.1.11-.19.16-.28l-1.1-.64Zm2.99-2.97c-.09.06-.18.11-.28.17l.67,1.09c.09-.06.18-.12.28-.17l-.67-1.09Zm-2.99,2.97c-.06.09-.11.18-.16.28l1.1.64c.05-.1.11-.19.16-.28l-1.1-.64Zm2.99-2.97c-.09.06-.18.11-.28.17l.67,1.09c.09-.06.18-.12.28-.17l-.67-1.09Zm-2.99,2.97c-.06.09-.11.18-.16.28l1.1.64c.05-.1.11-.19.16-.28l-1.1-.64Zm2.99-2.97c-.09.06-.18.11-.28.17l.67,1.09c.09-.06.18-.12.28-.17l-.67-1.09Zm-2.99,2.97c-.06.09-.11.18-.16.28l1.1.64c.05-.1.11-.19.16-.28l-1.1-.64Zm2.99-2.97c-.09.06-.18.11-.28.17l.67,1.09c.09-.06.18-.12.28-.17l-.67-1.09Zm-2.99,2.97c-.06.09-.11.18-.16.28l1.1.64c.05-.1.11-.19.16-.28l-1.1-.64Zm2.99-2.97c-.09.06-.18.11-.28.17l.67,1.09c.09-.06.18-.12.28-.17l-.67-1.09Zm-2.99,2.97c-.06.09-.11.18-.16.28l1.1.64c.05-.1.11-.19.16-.28l-1.1-.64Zm2.99-2.97c-.09.06-.18.11-.28.17l.67,1.09c.09-.06.18-.12.28-.17l-.67-1.09Zm-2.99,2.97c-.06.09-.11.18-.16.28l1.1.64c.05-.1.11-.19.16-.28l-1.1-.64Zm2.99-2.97c-.09.06-.18.11-.28.17l.67,1.09c.09-.06.18-.12.28-.17l-.67-1.09Zm-2.99,2.97c-.06.09-.11.18-.16.28l1.1.64c.05-.1.11-.19.16-.28l-1.1-.64Zm2.99-2.97c-.09.06-.18.11-.28.17l.67,1.09c.09-.06.18-.12.28-.17l-.67-1.09Zm-2.99,2.97c-.06.09-.11.18-.16.28l1.1.64c.05-.1.11-.19.16-.28l-1.1-.64Zm2.99-2.97c-.09.06-.18.11-.28.17l.67,1.09c.09-.06.18-.12.28-.17l-.67-1.09Zm-2.99,2.97c-.06.09-.11.18-.16.28l1.1.64c.05-.1.11-.19.16-.28l-1.1-.64Zm2.99-2.97c-.09.06-.18.11-.28.17l.67,1.09c.09-.06.18-.12.28-.17l-.67-1.09Zm-2.99,2.97c-.06.09-.11.18-.16.28l1.1.64c.05-.1.11-.19.16-.28l-1.1-.64Zm2.99-2.97c-.09.06-.18.11-.28.17l.67,1.09c.09-.06.18-.12.28-.17l-.67-1.09Zm-2.99,2.97c-.06.09-.11.18-.16.28l1.1.64c.05-.1.11-.19.16-.28l-1.1-.64Zm2.99-2.97c-.09.06-.18.11-.28.17l.67,1.09c.09-.06.18-.12.28-.17l-.67-1.09Zm-2.99,2.97c-.06.09-.11.18-.16.28l1.1.64c.05-.1.11-.19.16-.28l-1.1-.64Zm9.03-4.09l-.21,1.26c.36.07.71.15,1.05.27l.43-1.2c-.41-.14-.83-.25-1.27-.32Zm-6.04,1.12c-.09.06-.18.11-.28.17l.67,1.09c.09-.06.18-.12.28-.17l-.67-1.09Zm-2.99,2.97c-.06.09-.11.18-.16.28l1.1.64c.05-.1.11-.19.16-.28l-1.1-.64Zm2.99-2.97c-.09.06-.18.11-.28.17l.67,1.09c.09-.06.18-.12.28-.17l-.67-1.09Zm-2.99,2.97c-.06.09-.11.18-.16.28l1.1.64c.05-.1.11-.19.16-.28l-1.1-.64Zm2.99-2.97c-.09.06-.18.11-.28.17l.67,1.09c.09-.06.18-.12.28-.17l-.67-1.09Zm-2.99,2.97c-.06.09-.11.18-.16.28l1.1.64c.05-.1.11-.19.16-.28l-1.1-.64Zm2.99-2.97c-.09.06-.18.11-.28.17l.67,1.09c.09-.06.18-.12.28-.17l-.67-1.09Zm-2.99,2.97c-.06.09-.11.18-.16.28l1.1.64c.05-.1.11-.19.16-.28l-1.1-.64Zm0,0c-.06.09-.11.18-.16.28l1.1.64c.05-.1.11-.19.16-.28l-1.1-.64Zm0,0c-.06.09-.11.18-.16.28l1.1.64c.05-.1.11-.19.16-.28l-1.1-.64Zm15.72,1.48c-.04-.1-.08-.2-.12-.3-.17-.4-.36-.79-.59-1.16-.06-.09-.11-.18-.17-.27l-1.09.67c.06.09.12.18.17.27.18.3.35.62.49.96.04.1.08.2.12.3.12.34.23.69.3,1.04l1.26-.23c-.09-.44-.21-.86-.37-1.27Zm0,0c-.04-.1-.08-.2-.12-.3l-1.19.46c.04.1.08.2.12.3.12.34.23.69.3,1.04l1.26-.23c-.09-.44-.21-.86-.37-1.27Zm0,0c-.04-.1-.08-.2-.12-.3l-1.19.46c.04.1.08.2.12.3.12.34.23.69.3,1.04l1.26-.23c-.09-.44-.21-.86-.37-1.27Zm0,0c-.04-.1-.08-.2-.12-.3l-1.19.46c.04.1.08.2.12.3.12.34.23.69.3,1.04l1.26-.23c-.09-.44-.21-.86-.37-1.27Zm0,0c-.04-.1-.08-.2-.12-.3l-1.19.46c.04.1.08.2.12.3.12.34.23.69.3,1.04l1.26-.23c-.09-.44-.21-.86-.37-1.27Zm0,0c-.04-.1-.08-.2-.12-.3l-1.19.46c.04.1.08.2.12.3.12.34.23.69.3,1.04l1.26-.23c-.09-.44-.21-.86-.37-1.27Zm0,0c-.04-.1-.08-.2-.12-.3l-1.19.46c.04.1.08.2.12.3.12.34.23.69.3,1.04l1.26-.23c-.09-.44-.21-.86-.37-1.27Zm0,0c-.04-.1-.08-.2-.12-.3l-1.19.46c.04.1.08.2.12.3.12.34.23.69.3,1.04l1.26-.23c-.09-.44-.21-.86-.37-1.27Zm0,0c-.04-.1-.08-.2-.12-.3l-1.19.46c.04.1.08.2.12.3.12.34.23.69.3,1.04l1.26-.23c-.09-.44-.21-.86-.37-1.27Zm0,0c-.04-.1-.08-.2-.12-.3l-1.19.46c.04.1.08.2.12.3.12.34.23.69.3,1.04l1.26-.23c-.09-.44-.21-.86-.37-1.27Zm0,0c-.04-.1-.08-.2-.12-.3l-1.19.46c.04.1.08.2.12.3.12.34.23.69.3,1.04l1.26-.23c-.09-.44-.21-.86-.37-1.27Zm0,0c-.04-.1-.08-.2-.12-.3l-1.19.46c.04.1.08.2.12.3.12.34.23.69.3,1.04l1.26-.23c-.09-.44-.21-.86-.37-1.27Zm0,0c-.04-.1-.08-.2-.12-.3l-1.19.46c.04.1.08.2.12.3.12.34.23.69.3,1.04l1.26-.23c-.09-.44-.21-.86-.37-1.27Zm0,0c-.04-.1-.08-.2-.12-.3l-1.19.46c.04.1.08.2.12.3.12.34.23.69.3,1.04l1.26-.23c-.09-.44-.21-.86-.37-1.27Zm0,0c-.04-.1-.08-.2-.12-.3l-1.19.46c.04.1.08.2.12.3.12.34.23.69.3,1.04l1.26-.23c-.09-.44-.21-.86-.37-1.27Zm0,0c-.04-.1-.08-.2-.12-.3l-1.19.46c.04.1.08.2.12.3.12.34.23.69.3,1.04l1.26-.23c-.09-.44-.21-.86-.37-1.27Zm.43,1.59l-1.26.23c.06.34.09.7.1,1.05h1.27c0-.44-.05-.86-.12-1.28Zm-.43-1.59c-.04-.1-.08-.2-.12-.3l-1.19.46c.04.1.08.2.12.3.12.34.23.69.3,1.04l1.26-.23c-.09-.44-.21-.86-.37-1.27Zm0,0c-.04-.1-.08-.2-.12-.3l-1.19.46c.04.1.08.2.12.3.12.34.23.69.3,1.04l1.26-.23c-.09-.44-.21-.86-.37-1.27Zm0,0c-.04-.1-.08-.2-.12-.3l-1.19.46c.04.1.08.2.12.3.12.34.23.69.3,1.04l1.26-.23c-.09-.44-.21-.86-.37-1.27Zm0,0c-.04-.1-.08-.2-.12-.3l-1.19.46c.04.1.08.2.12.3.12.34.23.69.3,1.04l1.26-.23c-.09-.44-.21-.86-.37-1.27Zm0,0c-.04-.1-.08-.2-.12-.3l-1.19.46c.04.1.08.2.12.3.12.34.23.69.3,1.04l1.26-.23c-.09-.44-.21-.86-.37-1.27Zm0,0c-.04-.1-.08-.2-.12-.3l-1.19.46c.04.1.08.2.12.3.12.34.23.69.3,1.04l1.26-.23c-.09-.44-.21-.86-.37-1.27Zm0,0c-.04-.1-.08-.2-.12-.3l-1.19.46c.04.1.08.2.12.3.12.34.23.69.3,1.04l1.26-.23c-.09-.44-.21-.86-.37-1.27Zm0,0c-.04-.1-.08-.2-.12-.3l-1.19.46c.04.1.08.2.12.3.12.34.23.69.3,1.04l1.26-.23c-.09-.44-.21-.86-.37-1.27Zm0,0c-.04-.1-.08-.2-.12-.3l-1.19.46c.04.1.08.2.12.3.12.34.23.69.3,1.04l1.26-.23c-.09-.44-.21-.86-.37-1.27Zm0,0c-.04-.1-.08-.2-.12-.3l-1.19.46c.04.1.08.2.12.3.12.34.23.69.3,1.04l1.26-.23c-.09-.44-.21-.86-.37-1.27Zm0,0c-.04-.1-.08-.2-.12-.3l-1.19.46c.04.1.08.2.12.3.12.34.23.69.3,1.04l1.26-.23c-.09-.44-.21-.86-.37-1.27Zm0,0c-.04-.1-.08-.2-.12-.3l-1.19.46c.04.1.08.2.12.3.12.34.23.69.3,1.04l1.26-.23c-.09-.44-.21-.86-.37-1.27Zm0,0c-.04-.1-.08-.2-.12-.3l-1.19.46c.04.1.08.2.12.3.12.34.23.69.3,1.04l1.26-.23c-.09-.44-.21-.86-.37-1.27Zm0,0c-.04-.1-.08-.2-.12-.3l-1.19.46c.04.1.08.2.12.3.12.34.23.69.3,1.04l1.26-.23c-.09-.44-.21-.86-.37-1.27Zm0,0c-.04-.1-.08-.2-.12-.3l-1.19.46c.04.1.08.2.12.3.12.34.23.69.3,1.04l1.26-.23c-.09-.44-.21-.86-.37-1.27Zm-.72,3.2c0,.33-.03.65-.08.97-.01.11-.03.21-.05.32l1.26.22c.02-.1.04-.21.06-.32.06-.39.09-.78.1-1.19h-1.27Zm.72-3.2c-.04-.1-.08-.2-.12-.3l-1.19.46c.04.1.08.2.12.3.12.34.23.69.3,1.04l1.26-.23c-.09-.44-.21-.86-.37-1.27Zm-9.73-5.57c-.11.02-.21.04-.32.06-.45.1-.88.22-1.3.38l.46,1.19c.35-.13.7-.24,1.07-.32.1-.02.21-.04.32-.06l-.23-1.25Zm8.65,10.95c-.03.1-.07.2-.11.3-.12.34-.27.66-.44.97-.05.09-.1.19-.16.28-.17.29-.37.56-.58.83-.07.09-.13.17-.21.25-.22.24-.44.47-.69.69-.08.07-.16.14-.25.21-.24.19-.49.37-.75.53-.09.06-.18.11-.28.16-.3.17-.62.33-.95.46-.1.04-.2.08-.3.11-.33.11-.68.2-1.03.27-.1.02-.21.04-.32.05-.34.05-.68.08-1.03.08h-.05c-.09,0-.18,0-.27,0-.32,0-.63-.04-.94-.09-.11-.02-.21-.04-.32-.06-.29-.06-.58-.14-.86-.23-.1-.04-.2-.07-.3-.11-.32-.12-.63-.27-.93-.44-.1-.05-.19-.1-.28-.16-.3-.18-.58-.38-.85-.6-.08-.07-.16-.14-.24-.21-.2-.17-.39-.36-.56-.56-.07-.08-.14-.16-.21-.24-.22-.27-.43-.55-.61-.85-.06-.09-.11-.18-.16-.28-.16-.28-.3-.58-.42-.88-.04-.1-.08-.2-.11-.3-.12-.34-.22-.69-.29-1.06-.02-.1-.04-.21-.05-.32-.05-.32-.08-.65-.08-.98,0-.04,0-.08,0-.12,0-.07,0-.13,0-.2,0-.31.04-.61.08-.91.02-.11.03-.21.05-.32.07-.35.16-.69.27-1.01.04-.1.07-.2.11-.3.12-.3.26-.6.42-.89.05-.1.11-.19.16-.28.12-.19.24-.38.38-.56.07-.09.13-.17.2-.26.19-.24.4-.46.62-.67.08-.08.16-.15.24-.22.26-.23.54-.45.84-.64.09-.06.18-.12.28-.17l-.67-1.09c-.09.06-.18.11-.28.17-.36.23-.7.49-1.01.77-.08.07-.16.14-.24.22-.27.26-.53.54-.77.83-.07.08-.13.17-.2.25-.17.23-.34.47-.49.72-.06.09-.11.18-.16.28-.2.35-.37.72-.52,1.09-.04.1-.08.2-.11.3-.14.4-.25.81-.33,1.23-.02.1-.04.21-.05.32-.06.37-.09.75-.1,1.13,0,.07,0,.13,0,.2,0,.04,0,.08,0,.12,0,.41.04.82.1,1.21.02.11.04.21.06.32.09.44.2.87.35,1.29.04.1.08.2.11.3.15.38.32.74.52,1.08.05.09.11.19.16.28.22.36.47.7.74,1.03.07.08.14.16.21.24.22.24.44.47.68.68.08.07.16.14.25.21.33.27.68.52,1.04.74.09.06.19.11.28.16.36.2.75.38,1.14.53.1.04.2.08.3.11.35.12.7.22,1.07.29.1.02.21.04.32.06.38.06.76.1,1.15.11.09,0,.18,0,.27,0h.05c.43,0,.85-.04,1.26-.1.11-.02.21-.03.32-.05.43-.08.85-.19,1.26-.34.1-.04.2-.07.3-.11.4-.16.79-.34,1.16-.56.09-.05.19-.11.28-.16.32-.2.63-.42.92-.66.08-.07.17-.14.25-.21.3-.26.58-.54.84-.84.07-.08.14-.16.21-.25.25-.31.48-.64.69-.99.06-.09.11-.19.16-.28.21-.38.39-.77.54-1.18.04-.1.07-.2.1-.31l-1.2-.43Zm-7.14-11.08c-.09,0-.18,0-.27,0v1.28c.09,0,.18,0,.27,0h.05v-1.28h-.05Z"/>
  <path class="cls-1" d="m33.81,26.49l-.22,1.26c.25.04.49.1.73.18l.43-1.2c-.31-.1-.62-.18-.95-.24Zm1.25.35l-.43,1.2c.21.08.42.18.62.29l.64-1.11c-.27-.14-.54-.27-.83-.38Zm-2.41-.46v1.28c.21,0,.42.01.63.04l.21-1.26c-.28-.04-.56-.06-.84-.06Zm1.16.1l-.22,1.26c.25.04.49.1.73.18l.43-1.2c-.31-.1-.62-.18-.95-.24Zm1.25.35l-.43,1.2c.21.08.42.18.62.29l.64-1.11c-.27-.14-.54-.27-.83-.38Zm-2.41-.46v1.28c.21,0,.42.01.63.04l.21-1.26c-.28-.04-.56-.06-.84-.06Zm1.16.1l-.22,1.26c.25.04.49.1.73.18l.43-1.2c-.31-.1-.62-.18-.95-.24Zm1.25.35l-.43,1.2c.21.08.42.18.62.29l.64-1.11c-.27-.14-.54-.27-.83-.38Zm-2.41-.46v1.28c.21,0,.42.01.63.04l.21-1.26c-.28-.04-.56-.06-.84-.06Zm1.16.1l-.22,1.26c.25.04.49.1.73.18l.43-1.2c-.31-.1-.62-.18-.95-.24Zm1.25.35l-.43,1.2c.21.08.42.18.62.29l.64-1.11c-.27-.14-.54-.27-.83-.38Zm-2.41-.46v1.28c.21,0,.42.01.63.04l.21-1.26c-.28-.04-.56-.06-.84-.06Zm1.16.1l-.22,1.26c.25.04.49.1.73.18l.43-1.2c-.31-.1-.62-.18-.95-.24Zm1.25.35l-.43,1.2c.21.08.42.18.62.29l.64-1.11c-.27-.14-.54-.27-.83-.38Zm-2.41-.46v1.28c.21,0,.42.01.63.04l.21-1.26c-.28-.04-.56-.06-.84-.06Zm1.16.1l-.22,1.26c.25.04.49.1.73.18l.43-1.2c-.31-.1-.62-.18-.95-.24Zm1.25.35l-.43,1.2c.21.08.42.18.62.29l.64-1.11c-.27-.14-.54-.27-.83-.38Zm-2.41-.46v1.28c.21,0,.42.01.63.04l.21-1.26c-.28-.04-.56-.06-.84-.06Zm1.16.1l-.22,1.26c.25.04.49.1.73.18l.43-1.2c-.31-.1-.62-.18-.95-.24Zm1.25.35l-.43,1.2c.21.08.42.18.62.29l.64-1.11c-.27-.14-.54-.27-.83-.38Zm-2.41-.46v1.28c.21,0,.42.01.63.04l.21-1.26c-.28-.04-.56-.06-.84-.06Zm-4.84,1.95c-.2.19-.38.39-.55.6l.99.8c.13-.15.26-.3.4-.44l-.84-.95Zm2.04-1.37c-.27.12-.53.25-.78.4l.67,1.09c.19-.11.38-.21.58-.3l-.46-1.19Zm-1.06.58c-.26.17-.51.37-.75.58l.84.96c.18-.16.37-.31.57-.45l-.66-1.09Zm-1.73,1.65c-.11.15-.22.31-.33.48l1.1.64c.07-.11.14-.21.21-.32l-.99-.8Zm11.14,4.21c0,.22-.02.44-.05.65-.01.11-.03.21-.05.32-.04.19-.09.39-.14.57-.03.1-.07.21-.1.31-.09.23-.19.45-.3.66-.05.1-.1.19-.16.28-.12.2-.26.4-.41.58-.07.09-.14.17-.21.25-.15.16-.3.32-.47.46-.08.08-.16.14-.25.21-.15.12-.31.23-.48.34-.09.06-.18.11-.28.16-.21.12-.43.22-.65.31-.1.04-.2.08-.3.11-.22.08-.45.14-.69.18-.1.02-.21.04-.32.05-.23.03-.46.05-.69.05-.02,0-.03,0-.05,0-.09,0-.18,0-.27,0-.21,0-.42-.03-.62-.07-.11-.02-.21-.04-.32-.06-.18-.04-.36-.09-.54-.15-.1-.03-.2-.07-.3-.11-.22-.08-.43-.18-.63-.29-.1-.05-.19-.1-.28-.16-.19-.12-.38-.25-.56-.4-.09-.07-.17-.14-.25-.21-.13-.12-.26-.24-.38-.37-.07-.08-.14-.16-.21-.25-.15-.19-.29-.38-.42-.58-.06-.09-.11-.18-.16-.28-.1-.19-.19-.38-.27-.58-.04-.1-.08-.2-.11-.3-.08-.23-.14-.47-.19-.71-.02-.1-.04-.21-.05-.32-.03-.21-.05-.43-.05-.65,0-.04,0-.08,0-.12,0-.07,0-.13,0-.2,0-.2.02-.4.05-.6.01-.11.03-.21.05-.32.05-.24.11-.47.19-.69.03-.1.07-.2.11-.3.08-.2.17-.39.28-.58l-1.1-.64c-.14.25-.27.52-.37.79-.04.1-.08.2-.11.3-.1.29-.18.6-.25.91-.02.1-.04.21-.06.32-.04.27-.06.54-.07.81,0,.07,0,.13,0,.2,0,.04,0,.08,0,.12,0,.3.03.59.07.88.01.11.03.21.05.32.06.32.15.64.26.94.03.1.07.2.11.3.11.27.23.53.37.78.05.09.11.19.16.28.17.27.35.52.55.76.07.08.14.16.21.24.16.18.33.34.5.5.08.07.16.14.24.21.24.19.49.37.75.54.09.06.18.11.28.16.27.15.55.28.84.39.1.04.2.08.3.11.25.08.49.15.75.2.1.02.21.04.32.06.27.04.55.07.84.08.09,0,.18,0,.27,0h.05c.31,0,.62-.03.92-.07.11-.02.21-.03.32-.05.31-.06.62-.14.92-.24.1-.03.2-.07.3-.11.3-.12.58-.25.86-.41.09-.05.19-.11.28-.17.23-.14.45-.3.66-.47.08-.07.17-.14.25-.21.22-.19.42-.4.62-.62.07-.08.14-.16.21-.25.19-.24.37-.49.52-.75.06-.09.11-.19.16-.28.15-.28.29-.57.4-.87.04-.1.07-.2.1-.3.08-.26.15-.52.2-.79.02-.1.04-.21.05-.32.04-.29.07-.57.07-.87h-1.28Zm-10.4-5.06c-.2.19-.38.39-.55.6l.99.8c.13-.15.26-.3.4-.44l-.84-.95Zm2.04-1.37c-.27.12-.53.25-.78.4l.67,1.09c.19-.11.38-.21.58-.3l-.46-1.19Zm-1.06.58c-.26.17-.51.37-.75.58l.84.96c.18-.16.37-.31.57-.45l-.66-1.09Zm-1.73,1.65c-.11.15-.22.31-.33.48l1.1.64c.07-.11.14-.21.21-.32l-.99-.8Zm11.04,5.18c-.04.19-.09.39-.14.57-.03.1-.07.21-.1.31-.09.23-.19.45-.3.66-.05.1-.1.19-.16.28-.12.2-.26.4-.41.58-.07.09-.14.17-.21.25-.15.16-.3.32-.47.46-.08.08-.16.14-.25.21-.15.12-.31.23-.48.34-.09.06-.18.11-.28.16-.21.12-.43.22-.65.31-.1.04-.2.08-.3.11-.22.08-.45.14-.69.18-.1.02-.21.04-.32.05-.23.03-.46.05-.69.05-.02,0-.03,0-.05,0-.09,0-.18,0-.27,0-.21,0-.42-.03-.62-.07-.11-.02-.21-.04-.32-.06-.18-.04-.36-.09-.54-.15-.1-.03-.2-.07-.3-.11-.22-.08-.43-.18-.63-.29-.1-.05-.19-.1-.28-.16-.19-.12-.38-.25-.56-.4-.09-.07-.17-.14-.25-.21-.13-.12-.26-.24-.38-.37-.07-.08-.14-.16-.21-.25-.15-.19-.29-.38-.42-.58-.06-.09-.11-.18-.16-.28-.1-.19-.19-.38-.27-.58-.04-.1-.08-.2-.11-.3-.08-.23-.14-.47-.19-.71-.02-.1-.04-.21-.05-.32-.03-.21-.05-.43-.05-.65,0-.04,0-.08,0-.12,0-.07,0-.13,0-.2,0-.2.02-.4.05-.6.01-.11.03-.21.05-.32.05-.24.11-.47.19-.69.03-.1.07-.2.11-.3.08-.2.17-.39.28-.58l-1.1-.64c-.14.25-.27.52-.37.79-.04.1-.08.2-.11.3-.1.29-.18.6-.25.91-.02.1-.04.21-.06.32-.04.27-.06.54-.07.81,0,.07,0,.13,0,.2,0,.04,0,.08,0,.12,0,.3.03.59.07.88.01.11.03.21.05.32.06.32.15.64.26.94.03.1.07.2.11.3.11.27.23.53.37.78.05.09.11.19.16.28.17.27.35.52.55.76.07.08.14.16.21.24.16.18.33.34.5.5.08.07.16.14.24.21.24.19.49.37.75.54.09.06.18.11.28.16.27.15.55.28.84.39.1.04.2.08.3.11.25.08.49.15.75.2.1.02.21.04.32.06.27.04.55.07.84.08.09,0,.18,0,.27,0h.05c.31,0,.62-.03.92-.07.11-.02.21-.03.32-.05.31-.06.62-.14.92-.24.1-.03.2-.07.3-.11.3-.12.58-.25.86-.41.09-.05.19-.11.28-.17.23-.14.45-.3.66-.47.08-.07.17-.14.25-.21.22-.19.42-.4.62-.62.07-.08.14-.16.21-.25.19-.24.37-.49.52-.75.06-.09.11-.19.16-.28.15-.28.29-.57.4-.87.04-.1.07-.2.1-.3.08-.26.15-.52.2-.79l-1.26-.22Zm.95-3.49c-.04-.1-.08-.2-.12-.3-.12-.3-.27-.58-.44-.86-.06-.09-.11-.18-.17-.27-.15-.23-.32-.44-.49-.65-.07-.08-.14-.16-.22-.24-.12-.13-.24-.25-.37-.36l-.83.96c.09.08.17.16.25.24.07.08.15.16.22.24.13.15.25.31.36.47.06.09.12.18.17.27.13.21.24.43.34.65.05.1.09.2.12.3.08.23.15.46.2.7l1.26-.23c-.07-.32-.16-.63-.27-.93Zm-.95,3.49c-.04.19-.09.39-.14.57-.03.1-.07.21-.1.31-.09.23-.19.45-.3.66-.05.1-.1.19-.16.28-.12.2-.26.4-.41.58-.07.09-.14.17-.21.25-.15.16-.3.32-.47.46l.84.96c.22-.19.42-.4.62-.62.07-.08.14-.16.21-.25.19-.24.37-.49.52-.75.06-.09.11-.19.16-.28.15-.28.29-.57.4-.87.04-.1.07-.2.1-.3.08-.26.15-.52.2-.79l-1.26-.22Zm.95-3.49c-.04-.1-.08-.2-.12-.3-.12-.3-.27-.58-.44-.86-.06-.09-.11-.18-.17-.27-.15-.23-.32-.44-.49-.65-.07-.08-.14-.16-.22-.24-.12-.13-.24-.25-.37-.36l-.83.96c.09.08.17.16.25.24.07.08.15.16.22.24.13.15.25.31.36.47.06.09.12.18.17.27.13.21.24.43.34.65.05.1.09.2.12.3.08.23.15.46.2.7l1.26-.23c-.07-.32-.16-.63-.27-.93Zm-3.76,7.31c-.21.12-.43.22-.65.31-.1.04-.2.08-.3.11-.22.08-.45.14-.69.18-.1.02-.21.04-.32.05-.23.03-.46.05-.69.05-.02,0-.03,0-.05,0-.09,0-.18,0-.27,0-.21,0-.42-.03-.62-.07-.11-.02-.21-.04-.32-.06-.18-.04-.36-.09-.54-.15l-.43,1.2c.25.08.49.15.75.2.1.02.21.04.32.06.27.04.55.07.84.08.09,0,.18,0,.27,0h.05c.31,0,.62-.03.92-.07.11-.02.21-.03.32-.05.31-.06.62-.14.92-.24.1-.03.2-.07.3-.11.3-.12.58-.25.86-.41l-.67-1.09Zm-6.21-.54c-.09-.07-.17-.14-.25-.21-.13-.12-.26-.24-.38-.37-.07-.08-.14-.16-.21-.25-.15-.19-.29-.38-.42-.58-.06-.09-.11-.18-.16-.28-.1-.19-.19-.38-.27-.58-.04-.1-.08-.2-.11-.3-.08-.23-.14-.47-.19-.71-.02-.1-.04-.21-.05-.32-.03-.21-.05-.43-.05-.65,0-.04,0-.08,0-.12,0-.07,0-.13,0-.2,0-.2.02-.4.05-.6.01-.11.03-.21.05-.32.05-.24.11-.47.19-.69.03-.1.07-.2.11-.3.08-.2.17-.39.28-.58l-1.1-.64c-.14.25-.27.52-.37.79-.04.1-.08.2-.11.3-.1.29-.18.6-.25.91-.02.1-.04.21-.06.32-.04.27-.06.54-.07.81,0,.07,0,.13,0,.2,0,.04,0,.08,0,.12,0,.3.03.59.07.88.01.11.03.21.05.32.06.32.15.64.26.94.03.1.07.2.11.3.11.27.23.53.37.78.05.09.11.19.16.28.17.27.35.52.55.76.07.08.14.16.21.24.16.18.33.34.5.5.08.07.16.14.24.21.24.19.49.37.75.54l.64-1.1c-.19-.12-.38-.25-.56-.4Zm-1.28-9.31c-.2.19-.38.39-.55.6l.99.8c.13-.15.26-.3.4-.44l-.84-.95Zm2.04-1.37c-.27.12-.53.25-.78.4l.67,1.09c.19-.11.38-.21.58-.3l-.46-1.19Zm-1.06.58c-.26.17-.51.37-.75.58l.84.96c.18-.16.37-.31.57-.45l-.66-1.09Zm-1.73,1.65c-.11.15-.22.31-.33.48l1.1.64c.07-.11.14-.21.21-.32l-.99-.8Zm11.04,5.18c-.04.19-.09.39-.14.57-.03.1-.07.21-.1.31-.09.23-.19.45-.3.66-.05.1-.1.19-.16.28-.12.2-.26.4-.41.58-.07.09-.14.17-.21.25-.15.16-.3.32-.47.46l.84.96c.22-.19.42-.4.62-.62.07-.08.14-.16.21-.25.19-.24.37-.49.52-.75.06-.09.11-.19.16-.28.15-.28.29-.57.4-.87.04-.1.07-.2.1-.3.08-.26.15-.52.2-.79l-1.26-.22Zm.95-3.49c-.04-.1-.08-.2-.12-.3-.12-.3-.27-.58-.44-.86-.06-.09-.11-.18-.17-.27-.15-.23-.32-.44-.49-.65-.07-.08-.14-.16-.22-.24-.12-.13-.24-.25-.37-.36l-.83.96c.09.08.17.16.25.24.07.08.15.16.22.24.13.15.25.31.36.47.06.09.12.18.17.27.13.21.24.43.34.65.05.1.09.2.12.3.08.23.15.46.2.7l1.26-.23c-.07-.32-.16-.63-.27-.93Zm-3.76,7.31c-.21.12-.43.22-.65.31-.1.04-.2.08-.3.11-.22.08-.45.14-.69.18-.1.02-.21.04-.32.05-.23.03-.46.05-.69.05-.02,0-.03,0-.05,0-.09,0-.18,0-.27,0-.21,0-.42-.03-.62-.07-.11-.02-.21-.04-.32-.06-.18-.04-.36-.09-.54-.15l-.43,1.2c.25.08.49.15.75.2.1.02.21.04.32.06.27.04.55.07.84.08.09,0,.18,0,.27,0h.05c.31,0,.62-.03.92-.07.11-.02.21-.03.32-.05.31-.06.62-.14.92-.24.1-.03.2-.07.3-.11.3-.12.58-.25.86-.41l-.67-1.09Zm-5.45-11.23c-.27.12-.53.25-.78.4l.67,1.09c.19-.11.38-.21.58-.3l-.46-1.19Zm-1.06.58c-.26.17-.51.37-.75.58l.84.96c.18-.16.37-.31.57-.45l-.66-1.09Zm.29,10.11c-.09-.07-.17-.14-.25-.21-.13-.12-.26-.24-.38-.37-.07-.08-.14-.16-.21-.25-.15-.19-.29-.38-.42-.58-.06-.09-.11-.18-.16-.28-.1-.19-.19-.38-.27-.58l-1.19.46c.11.27.23.53.37.78.05.09.11.19.16.28.17.27.35.52.55.76.07.08.14.16.21.24.16.18.33.34.5.5.08.07.16.14.24.21.24.19.49.37.75.54l.64-1.1c-.19-.12-.38-.25-.56-.4Zm-2.51-7.7c-.14.25-.27.52-.37.79-.04.1-.08.2-.11.3-.1.29-.18.6-.25.91-.02.1-.04.21-.06.32-.04.27-.06.54-.07.81,0,.07,0,.13,0,.2,0,.04,0,.08,0,.12,0,.3.03.59.07.88l1.26-.23c-.03-.21-.05-.43-.05-.65,0-.04,0-.08,0-.12,0-.07,0-.13,0-.2,0-.2.02-.4.05-.6.01-.11.03-.21.05-.32.05-.24.11-.47.19-.69.03-.1.07-.2.11-.3.08-.2.17-.39.28-.58l-1.1-.64Zm.49-.76c-.11.15-.22.31-.33.48l1.1.64c.07-.11.14-.21.21-.32l-.99-.8Zm.75-.85c-.2.19-.38.39-.55.6l.99.8c.13-.15.26-.3.4-.44l-.84-.95Zm2.04-1.37c-.27.12-.53.25-.78.4l.67,1.09c.19-.11.38-.21.58-.3l-.46-1.19Zm3.96-.47l-.22,1.26c.25.04.49.1.73.18l.43-1.2c-.31-.1-.62-.18-.95-.24Zm1.25.35l-.43,1.2c.21.08.42.18.62.29l.64-1.11c-.27-.14-.54-.27-.83-.38Zm-6.27.69c-.26.17-.51.37-.75.58l.84.96c.18-.16.37-.31.57-.45l-.66-1.09Zm-1.73,1.65c-.11.15-.22.31-.33.48l1.1.64c.07-.11.14-.21.21-.32l-.99-.8Zm12.42,3.89c0-.32-.04-.64-.09-.94-.02-.11-.04-.21-.06-.32-.07-.32-.16-.63-.27-.93-.04-.1-.08-.2-.12-.3-.12-.3-.27-.58-.44-.86-.06-.09-.11-.18-.17-.27-.15-.23-.32-.44-.49-.65-.07-.08-.14-.16-.22-.24-.12-.13-.24-.25-.37-.36-.08-.08-.16-.14-.24-.21l-.83.97c.08.07.16.14.24.21.09.08.17.16.25.24.07.08.15.16.22.24.13.15.25.31.36.47.06.09.12.18.17.27.13.21.24.43.34.65.05.1.09.2.12.3.08.23.15.46.2.7.03.1.05.21.06.31.04.23.07.47.07.72,0,.07,0,.13,0,.2,0,.04,0,.08,0,.12,0,.22-.02.44-.05.65-.01.11-.03.21-.05.32-.04.19-.09.39-.14.57-.03.1-.07.21-.1.31-.09.23-.19.45-.3.66-.05.1-.1.19-.16.28-.12.2-.26.4-.41.58-.07.09-.14.17-.21.25-.15.16-.3.32-.47.46-.08.08-.16.14-.25.21-.15.12-.31.23-.48.34-.09.06-.18.11-.28.16-.21.12-.43.22-.65.31-.1.04-.2.08-.3.11-.22.08-.45.14-.69.18-.1.02-.21.04-.32.05-.23.03-.46.05-.69.05-.02,0-.03,0-.05,0-.09,0-.18,0-.27,0-.21,0-.42-.03-.62-.07-.11-.02-.21-.04-.32-.06-.18-.04-.36-.09-.54-.15-.1-.03-.2-.07-.3-.11-.22-.08-.43-.18-.63-.29-.1-.05-.19-.1-.28-.16-.19-.12-.38-.25-.56-.4-.09-.07-.17-.14-.25-.21-.13-.12-.26-.24-.38-.37-.07-.08-.14-.16-.21-.25-.15-.19-.29-.38-.42-.58-.06-.09-.11-.18-.16-.28-.1-.19-.19-.38-.27-.58-.04-.1-.08-.2-.11-.3-.08-.23-.14-.47-.19-.71-.02-.1-.04-.21-.05-.32-.03-.21-.05-.43-.05-.65,0-.04,0-.08,0-.12,0-.07,0-.13,0-.2,0-.2.02-.4.05-.6.01-.11.03-.21.05-.32.05-.24.11-.47.19-.69.03-.1.07-.2.11-.3.08-.2.17-.39.28-.58l-1.1-.64c-.14.25-.27.52-.37.79-.04.1-.08.2-.11.3-.1.29-.18.6-.25.91-.02.1-.04.21-.06.32-.04.27-.06.54-.07.81,0,.07,0,.13,0,.2,0,.04,0,.08,0,.12,0,.3.03.59.07.88.01.11.03.21.05.32.06.32.15.64.26.94.03.1.07.2.11.3.11.27.23.53.37.78.05.09.11.19.16.28.17.27.35.52.55.76.07.08.14.16.21.24.16.18.33.34.5.5.08.07.16.14.24.21.24.19.49.37.75.54.09.06.18.11.28.16.27.15.55.28.84.39.1.04.2.08.3.11.25.08.49.15.75.2.1.02.21.04.32.06.27.04.55.07.84.08.09,0,.18,0,.27,0h.05c.31,0,.62-.03.92-.07.11-.02.21-.03.32-.05.31-.06.62-.14.92-.24.1-.03.2-.07.3-.11.3-.12.58-.25.86-.41.09-.05.19-.11.28-.17.23-.14.45-.3.66-.47.08-.07.17-.14.25-.21.22-.19.42-.4.62-.62.07-.08.14-.16.21-.25.19-.24.37-.49.52-.75.06-.09.11-.19.16-.28.15-.28.29-.57.4-.87.04-.1.07-.2.1-.3.08-.26.15-.52.2-.79.02-.1.04-.21.05-.32.04-.29.07-.57.07-.87,0-.04,0-.08,0-.12,0-.07,0-.13,0-.2Zm-12.5.2c0-.07,0-.13,0-.2,0-.2.02-.4.05-.6l-1.26-.21c-.04.27-.06.54-.07.81,0,.07,0,.13,0,.2,0,.04,0,.08,0,.12,0,.3.03.59.07.88l1.26-.23c-.03-.21-.05-.43-.05-.65,0-.04,0-.08,0-.12Zm-.41-3.33c-.14.25-.27.52-.37.79l1.2.43c.08-.2.17-.39.28-.58l-1.1-.64Zm.49-.76c-.11.15-.22.31-.33.48l1.1.64c.07-.11.14-.21.21-.32l-.99-.8Zm2.03,8.46c-.09-.07-.17-.14-.25-.21-.13-.12-.26-.24-.38-.37-.07-.08-.14-.16-.21-.25-.15-.19-.29-.38-.42-.58-.06-.09-.11-.18-.16-.28-.1-.19-.19-.38-.27-.58l-1.19.46c.11.27.23.53.37.78.05.09.11.19.16.28.17.27.35.52.55.76.07.08.14.16.21.24.16.18.33.34.5.5.08.07.16.14.24.21.24.19.49.37.75.54l.64-1.1c-.19-.12-.38-.25-.56-.4Zm.76-10.69c-.27.12-.53.25-.78.4l.67,1.09c.19-.11.38-.21.58-.3l-.46-1.19Zm-1.06.58c-.26.17-.51.37-.75.58l.84.96c.18-.16.37-.31.57-.45l-.66-1.09Zm6.5,10.65c-.21.12-.43.22-.65.31-.1.04-.2.08-.3.11-.22.08-.45.14-.69.18-.1.02-.21.04-.32.05-.23.03-.46.05-.69.05-.02,0-.03,0-.05,0-.09,0-.18,0-.27,0-.21,0-.42-.03-.62-.07-.11-.02-.21-.04-.32-.06-.18-.04-.36-.09-.54-.15l-.43,1.2c.25.08.49.15.75.2.1.02.21.04.32.06.27.04.55.07.84.08.09,0,.18,0,.27,0h.05c.31,0,.62-.03.92-.07.11-.02.21-.03.32-.05.31-.06.62-.14.92-.24.1-.03.2-.07.3-.11.3-.12.58-.25.86-.41l-.67-1.09Zm3.76-7.31c-.04-.1-.08-.2-.12-.3-.12-.3-.27-.58-.44-.86-.06-.09-.11-.18-.17-.27-.15-.23-.32-.44-.49-.65-.07-.08-.14-.16-.22-.24-.12-.13-.24-.25-.37-.36l-.83.96c.09.08.17.16.25.24.07.08.15.16.22.24.13.15.25.31.36.47.06.09.12.18.17.27.13.21.24.43.34.65.05.1.09.2.12.3.08.23.15.46.2.7l1.26-.23c-.07-.32-.16-.63-.27-.93Zm-.95,3.49c-.04.19-.09.39-.14.57-.03.1-.07.21-.1.31-.09.23-.19.45-.3.66-.05.1-.1.19-.16.28-.12.2-.26.4-.41.58-.07.09-.14.17-.21.25-.15.16-.3.32-.47.46l.84.96c.22-.19.42-.4.62-.62.07-.08.14-.16.21-.25.19-.24.37-.49.52-.75.06-.09.11-.19.16-.28.15-.28.29-.57.4-.87.04-.1.07-.2.1-.3.08-.26.15-.52.2-.79l-1.26-.22Zm-9.01,3.28c-.09-.07-.17-.14-.25-.21-.13-.12-.26-.24-.38-.37-.07-.08-.14-.16-.21-.25-.15-.19-.29-.38-.42-.58-.06-.09-.11-.18-.16-.28-.1-.19-.19-.38-.27-.58l-1.19.46c.11.27.23.53.37.78.05.09.11.19.16.28.17.27.35.52.55.76.07.08.14.16.21.24.16.18.33.34.5.5.08.07.16.14.24.21.24.19.49.37.75.54l.64-1.1c-.19-.12-.38-.25-.56-.4Zm-2.51-7.7c-.14.25-.27.52-.37.79-.04.1-.08.2-.11.3-.1.29-.18.6-.25.91-.02.1-.04.21-.06.32-.04.27-.06.54-.07.81,0,.07,0,.13,0,.2,0,.04,0,.08,0,.12,0,.3.03.59.07.88l1.26-.23c-.03-.21-.05-.43-.05-.65,0-.04,0-.08,0-.12,0-.07,0-.13,0-.2,0-.2.02-.4.05-.6.01-.11.03-.21.05-.32.05-.24.11-.47.19-.69.03-.1.07-.2.11-.3.08-.2.17-.39.28-.58l-1.1-.64Zm1.24-1.61c-.2.19-.38.39-.55.6l.99.8c.13-.15.26-.3.4-.44l-.84-.95Zm2.04-1.37c-.27.12-.53.25-.78.4l.67,1.09c.19-.11.38-.21.58-.3l-.46-1.19Zm-1.06.58c-.26.17-.51.37-.75.58l.84.96c.18-.16.37-.31.57-.45l-.66-1.09Zm-1.73,1.65c-.11.15-.22.31-.33.48l1.1.64c.07-.11.14-.21.21-.32l-.99-.8Zm8.24,9c-.21.12-.43.22-.65.31-.1.04-.2.08-.3.11-.22.08-.45.14-.69.18-.1.02-.21.04-.32.05-.23.03-.46.05-.69.05-.02,0-.03,0-.05,0-.09,0-.18,0-.27,0-.21,0-.42-.03-.62-.07-.11-.02-.21-.04-.32-.06-.18-.04-.36-.09-.54-.15l-.43,1.2c.25.08.49.15.75.2.1.02.21.04.32.06.27.04.55.07.84.08.09,0,.18,0,.27,0h.05c.31,0,.62-.03.92-.07.11-.02.21-.03.32-.05.31-.06.62-.14.92-.24.1-.03.2-.07.3-.11.3-.12.58-.25.86-.41l-.67-1.09Zm3.76-7.31c-.04-.1-.08-.2-.12-.3-.12-.3-.27-.58-.44-.86-.06-.09-.11-.18-.17-.27-.15-.23-.32-.44-.49-.65-.07-.08-.14-.16-.22-.24-.12-.13-.24-.25-.37-.36l-.83.96c.09.08.17.16.25.24.07.08.15.16.22.24.13.15.25.31.36.47.06.09.12.18.17.27.13.21.24.43.34.65.05.1.09.2.12.3.08.23.15.46.2.7l1.26-.23c-.07-.32-.16-.63-.27-.93Zm-.95,3.49c-.04.19-.09.39-.14.57-.03.1-.07.21-.1.31-.09.23-.19.45-.3.66-.05.1-.1.19-.16.28-.12.2-.26.4-.41.58-.07.09-.14.17-.21.25-.15.16-.3.32-.47.46l.84.96c.22-.19.42-.4.62-.62.07-.08.14-.16.21-.25.19-.24.37-.49.52-.75.06-.09.11-.19.16-.28.15-.28.29-.57.4-.87.04-.1.07-.2.1-.3.08-.26.15-.52.2-.79l-1.26-.22Zm-10.29-6.03c-.2.19-.38.39-.55.6l.99.8c.13-.15.26-.3.4-.44l-.84-.95Zm2.04-1.37c-.27.12-.53.25-.78.4l.67,1.09c.19-.11.38-.21.58-.3l-.46-1.19Zm-1.06.58c-.26.17-.51.37-.75.58l.84.96c.18-.16.37-.31.57-.45l-.66-1.09Zm-1.73,1.65c-.11.15-.22.31-.33.48l1.1.64c.07-.11.14-.21.21-.32l-.99-.8Zm8.24,9c-.21.12-.43.22-.65.31-.1.04-.2.08-.3.11-.22.08-.45.14-.69.18-.1.02-.21.04-.32.05-.23.03-.46.05-.69.05-.02,0-.03,0-.05,0-.09,0-.18,0-.27,0-.21,0-.42-.03-.62-.07-.11-.02-.21-.04-.32-.06-.18-.04-.36-.09-.54-.15-.1-.03-.2-.07-.3-.11-.22-.08-.43-.18-.63-.29-.1-.05-.19-.1-.28-.16-.19-.12-.38-.25-.56-.4-.09-.07-.17-.14-.25-.21-.13-.12-.26-.24-.38-.37-.07-.08-.14-.16-.21-.25-.15-.19-.29-.38-.42-.58-.06-.09-.11-.18-.16-.28-.1-.19-.19-.38-.27-.58-.04-.1-.08-.2-.11-.3-.08-.23-.14-.47-.19-.71-.02-.1-.04-.21-.05-.32-.03-.21-.05-.43-.05-.65,0-.04,0-.08,0-.12,0-.07,0-.13,0-.2,0-.2.02-.4.05-.6.01-.11.03-.21.05-.32.05-.24.11-.47.19-.69.03-.1.07-.2.11-.3.08-.2.17-.39.28-.58l-1.1-.64c-.14.25-.27.52-.37.79-.04.1-.08.2-.11.3-.1.29-.18.6-.25.91-.02.1-.04.21-.06.32-.04.27-.06.54-.07.81,0,.07,0,.13,0,.2,0,.04,0,.08,0,.12,0,.3.03.59.07.88.01.11.03.21.05.32.06.32.15.64.26.94.03.1.07.2.11.3.11.27.23.53.37.78.05.09.11.19.16.28.17.27.35.52.55.76.07.08.14.16.21.24.16.18.33.34.5.5.08.07.16.14.24.21.24.19.49.37.75.54.09.06.18.11.28.16.27.15.55.28.84.39.1.04.2.08.3.11.25.08.49.15.75.2.1.02.21.04.32.06.27.04.55.07.84.08.09,0,.18,0,.27,0h.05c.31,0,.62-.03.92-.07.11-.02.21-.03.32-.05.31-.06.62-.14.92-.24.1-.03.2-.07.3-.11.3-.12.58-.25.86-.41l-.67-1.09Zm3.76-7.31c-.04-.1-.08-.2-.12-.3-.12-.3-.27-.58-.44-.86-.06-.09-.11-.18-.17-.27-.15-.23-.32-.44-.49-.65-.07-.08-.14-.16-.22-.24-.12-.13-.24-.25-.37-.36l-.83.96c.09.08.17.16.25.24.07.08.15.16.22.24.13.15.25.31.36.47.06.09.12.18.17.27.13.21.24.43.34.65.05.1.09.2.12.3.08.23.15.46.2.7l1.26-.23c-.07-.32-.16-.63-.27-.93Zm-.95,3.49c-.04.19-.09.39-.14.57-.03.1-.07.21-.1.31-.09.23-.19.45-.3.66-.05.1-.1.19-.16.28-.12.2-.26.4-.41.58-.07.09-.14.17-.21.25-.15.16-.3.32-.47.46l.84.96c.22-.19.42-.4.62-.62.07-.08.14-.16.21-.25.19-.24.37-.49.52-.75.06-.09.11-.19.16-.28.15-.28.29-.57.4-.87.04-.1.07-.2.1-.3.08-.26.15-.52.2-.79l-1.26-.22Zm-10.29-6.03c-.2.19-.38.39-.55.6l.99.8c.13-.15.26-.3.4-.44l-.84-.95Zm2.04-1.37c-.27.12-.53.25-.78.4l.67,1.09c.19-.11.38-.21.58-.3l-.46-1.19Zm-1.06.58c-.26.17-.51.37-.75.58l.84.96c.18-.16.37-.31.57-.45l-.66-1.09Zm-1.73,1.65c-.11.15-.22.31-.33.48l1.1.64c.07-.11.14-.21.21-.32l-.99-.8Zm11.14,4.21c0,.22-.02.44-.05.65-.01.11-.03.21-.05.32-.04.19-.09.39-.14.57-.03.1-.07.21-.1.31-.09.23-.19.45-.3.66-.05.1-.1.19-.16.28-.12.2-.26.4-.41.58-.07.09-.14.17-.21.25-.15.16-.3.32-.47.46-.08.08-.16.14-.25.21-.15.12-.31.23-.48.34-.09.06-.18.11-.28.16-.21.12-.43.22-.65.31-.1.04-.2.08-.3.11-.22.08-.45.14-.69.18-.1.02-.21.04-.32.05-.23.03-.46.05-.69.05-.02,0-.03,0-.05,0-.09,0-.18,0-.27,0-.21,0-.42-.03-.62-.07-.11-.02-.21-.04-.32-.06-.18-.04-.36-.09-.54-.15-.1-.03-.2-.07-.3-.11-.22-.08-.43-.18-.63-.29-.1-.05-.19-.1-.28-.16-.19-.12-.38-.25-.56-.4-.09-.07-.17-.14-.25-.21-.13-.12-.26-.24-.38-.37-.07-.08-.14-.16-.21-.25-.15-.19-.29-.38-.42-.58-.06-.09-.11-.18-.16-.28-.1-.19-.19-.38-.27-.58-.04-.1-.08-.2-.11-.3-.08-.23-.14-.47-.19-.71-.02-.1-.04-.21-.05-.32-.03-.21-.05-.43-.05-.65,0-.04,0-.08,0-.12,0-.07,0-.13,0-.2,0-.2.02-.4.05-.6.01-.11.03-.21.05-.32.05-.24.11-.47.19-.69.03-.1.07-.2.11-.3.08-.2.17-.39.28-.58l-1.1-.64c-.14.25-.27.52-.37.79-.04.1-.08.2-.11.3-.1.29-.18.6-.25.91-.02.1-.04.21-.06.32-.04.27-.06.54-.07.81,0,.07,0,.13,0,.2,0,.04,0,.08,0,.12,0,.3.03.59.07.88.01.11.03.21.05.32.06.32.15.64.26.94.03.1.07.2.11.3.11.27.23.53.37.78.05.09.11.19.16.28.17.27.35.52.55.76.07.08.14.16.21.24.16.18.33.34.5.5.08.07.16.14.24.21.24.19.49.37.75.54.09.06.18.11.28.16.27.15.55.28.84.39.1.04.2.08.3.11.25.08.49.15.75.2.1.02.21.04.32.06.27.04.55.07.84.08.09,0,.18,0,.27,0h.05c.31,0,.62-.03.92-.07.11-.02.21-.03.32-.05.31-.06.62-.14.92-.24.1-.03.2-.07.3-.11.3-.12.58-.25.86-.41.09-.05.19-.11.28-.17.23-.14.45-.3.66-.47.08-.07.17-.14.25-.21.22-.19.42-.4.62-.62.07-.08.14-.16.21-.25.19-.24.37-.49.52-.75.06-.09.11-.19.16-.28.15-.28.29-.57.4-.87.04-.1.07-.2.1-.3.08-.26.15-.52.2-.79.02-.1.04-.21.05-.32.04-.29.07-.57.07-.87h-1.28Zm-5.56-7.01h-.05c-.09,0-.18,0-.27,0-.13,0-.26.01-.39.03l.08,1.27c.1,0,.2-.02.3-.02.09,0,.18,0,.27,0,.02,0,.03,0,.05,0,.21,0,.42.01.63.04l.21-1.26c-.28-.04-.56-.06-.84-.06Zm-1.22.1c-.1.02-.21.04-.31.06-.33.07-.65.17-.96.29l.46,1.19c.24-.09.48-.17.73-.22.1-.03.21-.05.32-.06.05,0,.11-.02.16-.03l-.18-1.26c-.07,0-.14.02-.21.03Z"/>
  <path class="cls-1" d="m39.61,25.45c-.08-.07-.16-.14-.24-.21l-.83.97c.08.07.16.14.24.21.21.19.41.38.6.59l.96-.84c-.23-.25-.47-.49-.72-.71Zm1.98,2.38l-1.09.66c.24.39.45.81.63,1.24l1.19-.46c-.21-.5-.45-.98-.73-1.44Zm.85,1.74l-1.19.46c.16.44.3.89.39,1.36l1.25-.23c-.11-.55-.27-1.08-.46-1.59Zm-1.89-3.17l-.95.84c.27.31.51.64.74.98l1.09-.66c-.26-.41-.55-.79-.87-1.16Zm1.13,8.57c-.08.4-.18.8-.3,1.18-.03.1-.07.2-.11.3-.16.44-.35.85-.57,1.26l1.1.64c.26-.47.48-.96.67-1.46.04-.1.07-.2.11-.3.15-.45.27-.92.36-1.4l-1.26-.21Zm-1.15,3.02c-.22.37-.46.72-.73,1.05-.07.09-.13.17-.21.25l.99.8c.07-.08.14-.16.21-.25.31-.38.59-.79.84-1.21l-1.1-.64Zm1.3-4.61c0,.43-.04.85-.1,1.27l1.26.22c.07-.49.11-.98.12-1.48h-1.27Zm-18.4-5.26c-.25.44-.47.9-.65,1.38-.04.1-.08.2-.11.3l1.2.43c.04-.1.07-.2.11-.3.16-.41.34-.8.55-1.17l-1.1-.64Zm1.01-1.48c-.07.08-.13.17-.2.26-.23.3-.45.62-.64.94l1.1.64c.16-.27.34-.53.53-.78.06-.09.13-.17.2-.26l-.99-.8Zm-.97,8.04c-.07-.42-.1-.86-.11-1.29h-1.27c0,.52.05,1.03.13,1.52.02.11.04.21.06.32l1.25-.23c-.02-.1-.04-.21-.06-.32Zm-1.2-3.36c-.02.1-.04.21-.06.32-.07.47-.11.94-.12,1.42h1.27c0-.41.04-.81.1-1.21.02-.11.03-.21.06-.32l-1.26-.22Zm4.64-6.9c-.44.29-.86.61-1.26.96-.08.07-.16.14-.24.22l.84.96c.08-.08.16-.15.24-.22.34-.3.7-.57,1.08-.82l-.67-1.09Zm1.64-.86c-.47.2-.93.43-1.37.69l.66,1.09c.37-.22.76-.42,1.16-.59l-.46-1.19Zm-3.81,14.54l-1.09.66c.28.45.59.87.92,1.27l.96-.84c-.29-.34-.56-.71-.79-1.09Zm-.73-1.44l-1.19.46c.19.47.41.93.66,1.37l1.09-.67c-.21-.37-.4-.76-.56-1.16Zm2.7,3.71c-.08-.07-.17-.14-.25-.21-.26-.23-.5-.47-.73-.72l-.95.84c.27.3.55.58.85.85.08.07.16.14.25.21.41.34.85.66,1.31.93l.64-1.1c-.39-.24-.76-.5-1.11-.79Zm8.93,1.6c-.44.15-.89.28-1.35.36l.23,1.26c.54-.1,1.07-.24,1.58-.43l-.46-1.19Zm1.81-.87c-.09.06-.18.11-.28.17-.39.23-.81.43-1.24.59l.46,1.19c.5-.19.98-.43,1.44-.69.09-.05.18-.11.28-.17l-.66-1.09Zm-6.37,1.27c-.11-.02-.21-.04-.32-.06-.39-.08-.78-.18-1.15-.31l-.43,1.2c.44.15.9.28,1.36.37.1.02.21.04.32.06.47.08.96.12,1.45.14v-1.28c-.42,0-.83-.05-1.23-.12Zm2.89.02c-.44.07-.88.1-1.34.1v1.28c.53,0,1.06-.05,1.57-.12l-.23-1.26Zm-1.34-19.64h-.05c-.09,0-.18,0-.27,0v1.28c.09,0,.18,0,.27,0h.05c.42,0,.83.03,1.24.09l.22-1.26c-.48-.07-.96-.1-1.45-.11Zm5.05,1.32c-.45-.25-.92-.47-1.42-.66l-.43,1.2c.42.16.82.34,1.21.56.09.05.19.1.28.16l.64-1.1c-.09-.06-.18-.11-.28-.16Zm-3.28-1.17l-.21,1.26c.46.08.91.2,1.34.34l.43-1.2c-.5-.17-1.03-.31-1.56-.4Z"/>
  <path class="cls-1" d="m33.27,32.91l.3-.06h0c0-.05,0-.1.02-.14l-.32.2Zm0,0l.3-.06h0c0-.05,0-.1.02-.14l-.32.2Zm0,0l.3-.06h0c0-.05,0-.1.02-.14l-.32.2Zm0,0l.3-.06h0c0-.05,0-.1.02-.14l-.32.2Zm0,0l.3-.06h0c0-.05,0-.1.02-.14l-.32.2Zm0,0l.3-.06h0c0-.05,0-.1.02-.14l-.32.2Zm0,0l.3-.06h0c0-.05,0-.1.02-.14l-.32.2Zm0,0l.3-.06h0c0-.05,0-.1.02-.14l-.32.2Zm0,0l.3-.06h0c0-.05,0-.1.02-.14l-.32.2Zm0,0l.3-.06h0c0-.05,0-.1.02-.14l-.32.2Zm0,0l.3-.06h0c0-.05,0-.1.02-.14l-.32.2Zm0,0l.3-.06h0c0-.05,0-.1.02-.14l-.32.2Zm0,0l.3-.06h0c0-.05,0-.1.02-.14l-.32.2Zm0,0l.3-.06h0c0-.05,0-.1.02-.14l-.32.2Zm0,0l.3-.06h0c0-.05,0-.1.02-.14l-.32.2Zm0,0l.3-.06h0c0-.05,0-.1.02-.14l-.32.2Zm0,0l.3-.06h0c0-.05,0-.1.02-.14l-.32.2Zm0,0l.3-.06h0c0-.05,0-.1.02-.14l-.32.2Zm0,0l.3-.06h0c0-.05,0-.1.02-.14l-.32.2Zm0,0l.3-.06h0c0-.05,0-.1.02-.14l-.32.2Zm0,0l.3-.06h0c0-.05,0-.1.02-.14l-.32.2Zm0,0l.3-.06h0c0-.05,0-.1.02-.14l-.32.2Zm0,0l.3-.06h0c0-.05,0-.1.02-.14l-.32.2Zm0,0l.3-.06h0c0-.05,0-.1.02-.14l-.32.2Zm0,0l.3-.06h0c0-.05,0-.1.02-.14l-.32.2Zm0,0l.3-.06h0c0-.05,0-.1.02-.14l-.32.2Zm0,0l.3-.06h0c0-.05,0-.1.02-.14l-.32.2Zm2.23.16c0-.08,0-.16-.02-.23,0-.11-.03-.21-.05-.32-.02-.08-.04-.15-.06-.22-.03-.1-.07-.21-.11-.3-.03-.08-.07-.16-.11-.23-.05-.1-.1-.19-.17-.28-.02-.04-.05-.08-.08-.11-.06-.08-.13-.16-.2-.24,0,0,0,0,0,0-.07-.08-.15-.15-.23-.21-.04-.03-.08-.07-.12-.1.02.06.04.12.05.18,0,.04,0,.07,0,.11,0,.13-.03.25-.09.36-.09.16-.23.29-.4.35-.08.03-.17.05-.27.05-.02,0-.04,0-.07,0-.1,0-.2-.04-.29-.08,0,0-.02,0-.03-.02-.09-.05-.17-.12-.23-.21-.02-.04-.05-.07-.07-.11-.05-.1-.08-.21-.08-.33,0-.21.09-.4.22-.54.09-.09.21-.16.34-.19,0,0,.02,0,.03,0,0,0-.01,0-.02,0-.1-.03-.2-.06-.3-.08-.1-.02-.21-.03-.32-.04-.06,0-.13,0-.19,0h-.05c-.09,0-.18,0-.27.01-.07,0-.14.01-.21.03-.11.02-.21.04-.31.07-.09.02-.18.05-.26.09-.1.04-.2.08-.29.13-.05.03-.11.06-.16.09-.09.06-.18.12-.27.18-.07.06-.14.11-.2.18-.08.07-.15.15-.22.23-.03.04-.07.08-.1.12-.06.08-.11.16-.17.24,0,0,0,.02-.01.03-.05.08-.1.17-.14.26-.02.05-.05.1-.07.15-.04.1-.08.2-.1.31-.02.08-.04.16-.06.25-.02.1-.03.21-.04.32,0,.05,0,.09,0,.14,0,.02,0,.05,0,.07,0,.09,0,.17.01.25,0,.05,0,.1.02.16.01.11.04.21.06.32.02.07.04.14.06.21.04.1.08.2.12.3.02.04.04.09.06.12.05.1.11.19.17.28.04.06.09.13.14.19.07.08.14.16.22.24.04.04.07.07.11.1.08.07.16.14.25.2.04.03.08.06.13.09.09.06.18.11.28.16.06.03.11.05.17.08.1.04.2.08.3.1.02,0,.04.01.06.02.1.03.21.05.32.06.05,0,.1.01.14.02.09,0,.18.01.27.01.02,0,.03,0,.05,0,.06,0,.12,0,.18,0,.11,0,.21-.02.32-.04.06,0,.12-.02.17-.04.1-.03.21-.06.31-.1.07-.03.13-.05.19-.08.1-.05.19-.1.29-.15.03-.02.05-.03.08-.05.09-.06.18-.12.26-.19.05-.04.09-.08.13-.12.08-.07.16-.15.23-.24.06-.07.12-.15.17-.22.06-.09.12-.18.17-.27h0c.04-.07.07-.14.1-.21.04-.1.08-.2.11-.3.01-.03.02-.07.03-.11.03-.1.05-.21.07-.32.01-.06.02-.13.02-.19,0-.08.01-.17.01-.25,0-.02,0-.05,0-.07Zm-1.4-.63c.13.03.23.12.28.24,0,0,0,.02,0,.03.02.04.03.09.03.14,0,.07-.02.13-.05.19,0,.01,0,.02-.02.03-.08.12-.21.2-.36.2-.11,0-.21-.04-.28-.11-.03-.03-.05-.06-.07-.09-.02-.03-.03-.06-.04-.09-.02-.04-.02-.09-.02-.13h0c0-.05,0-.1.02-.14,0-.03.02-.06.04-.09.07-.12.2-.19.35-.19.02,0,.04,0,.06,0,.02,0,.03,0,.05.01Zm-.83.47l.3-.06h0c0-.05,0-.1.02-.14l-.32.2Zm0,0l.3-.06h0c0-.05,0-.1.02-.14l-.32.2Zm0,0l.3-.06h0c0-.05,0-.1.02-.14l-.32.2Zm0,0l.3-.06h0c0-.05,0-.1.02-.14l-.32.2Zm0,0l.3-.06h0c0-.05,0-.1.02-.14l-.32.2Zm0,0l.3-.06h0c0-.05,0-.1.02-.14l-.32.2Zm0,0l.3-.06h0c0-.05,0-.1.02-.14l-.32.2Zm0,0l.3-.06h0c0-.05,0-.1.02-.14l-.32.2Zm0,0l.3-.06h0c0-.05,0-.1.02-.14l-.32.2Zm0,0l.3-.06h0c0-.05,0-.1.02-.14l-.32.2Zm0,0l.3-.06h0c0-.05,0-.1.02-.14l-.32.2Zm0,0l.3-.06h0c0-.05,0-.1.02-.14l-.32.2Zm0,0l.3-.06h0c0-.05,0-.1.02-.14l-.32.2Zm0,0l.3-.06h0c0-.05,0-.1.02-.14l-.32.2Zm0,0l.3-.06h0c0-.05,0-.1.02-.14l-.32.2Zm0,0l.3-.06h0c0-.05,0-.1.02-.14l-.32.2Zm0,0l.3-.06h0c0-.05,0-.1.02-.14l-.32.2Zm0,0l.3-.06h0c0-.05,0-.1.02-.14l-.32.2Zm0,0l.3-.06h0c0-.05,0-.1.02-.14l-.32.2Zm0,0l.3-.06h0c0-.05,0-.1.02-.14l-.32.2Zm0,0l.3-.06h0c0-.05,0-.1.02-.14l-.32.2Zm0,0l.3-.06h0c0-.05,0-.1.02-.14l-.32.2Zm0,0l.3-.06h0c0-.05,0-.1.02-.14l-.32.2Zm0,0l.3-.06h0c0-.05,0-.1.02-.14l-.32.2Zm0,0l.3-.06h0c0-.05,0-.1.02-.14l-.32.2Zm0,0l.3-.06h0c0-.05,0-.1.02-.14l-.32.2Zm0,0l.3-.06h0c0-.05,0-.1.02-.14l-.32.2Z"/>
  <path class="cls-1" d="m33.45,30.37s.01,0,.02,0c0,0-.02,0-.03,0h0Z"/>
  <path class="cls-1" d="m41.27,41.39l-1.97,1.75-1.47-2.22c.39-.25.83-.61,1.53-1.3l1.91,1.77Z"/>
  <rect class="cls-1" x="39.18" y="43.62" width="7.54" height="3.45" rx=".95" ry=".95" transform="translate(48.59 -16.86) rotate(48.63)"/>
</svg>